<?xml version="1.0" standalone="no"?>
<!DOCTYPE svg PUBLIC "-//W3C//DTD SVG 20010904//EN"
 "http://www.w3.org/TR/2001/REC-SVG-20010904/DTD/svg10.dtd">
<svg version="1.0" xmlns="http://www.w3.org/2000/svg"
 width="700.000000pt" height="700.000000pt" viewBox="0 0 700.000000 700.000000"
 preserveAspectRatio="xMidYMid meet">
<metadata>
Created by potrace 1.11, written by Peter Selinger 2001-2013
</metadata>
<g transform="translate(0.000000,700.000000) scale(0.100000,-0.100000)"
fill="#000000" stroke="none">
<path d="M1997 5601 c-28 -13 -77 -35 -107 -49 -30 -13 -271 -124 -535 -244
-264 -121 -505 -232 -535 -245 -30 -14 -89 -41 -130 -60 -41 -19 -113 -52
-160 -73 -98 -43 -166 -75 -304 -140 l-99 -46 815 0 815 1 79 70 c43 38 84 74
90 80 6 5 39 35 74 65 87 76 88 77 171 151 103 92 443 394 512 454 31 27 57
52 57 55 0 3 -155 5 -345 5 -342 0 -346 0 -398 -24z"/>
<path d="M2860 5619 c-23 -5 -80 -57 -226 -205 -107 -110 -298 -303 -424 -429
-127 -127 -230 -233 -230 -236 0 -3 684 -5 1520 -5 836 0 1519 3 1518 7 -2 4
-195 202 -430 440 l-428 432 -634 1 c-349 1 -649 -2 -666 -5z"/>
<path d="M4275 5620 c-12 -4 -11 -9 7 -24 22 -19 161 -141 184 -161 6 -5 44
-39 84 -75 77 -68 343 -303 395 -349 17 -15 91 -81 165 -146 l134 -120 814 -1
c787 0 813 0 779 17 -19 10 -140 66 -268 125 -129 58 -271 124 -317 145 -46
21 -85 39 -87 39 -2 0 -45 20 -97 44 -51 24 -194 90 -318 146 -124 56 -267
122 -319 146 -51 24 -95 44 -96 44 -2 0 -43 18 -92 41 -96 45 -185 86 -248
114 -36 16 -74 18 -373 19 -183 1 -339 -1 -347 -4z"/>
<path d="M827 4042 c303 -301 1022 -1015 1598 -1587 575 -572 1050 -1039 1055
-1038 6 2 9 -2 7 -8 -1 -6 3 -13 9 -15 5 -3 439 422 963 943 524 522 1249
1242 1610 1600 l656 653 -776 0 c-610 0 -779 -3 -786 -12 -6 -7 -47 -85 -93
-173 -46 -88 -109 -209 -140 -270 -32 -60 -90 -173 -130 -250 -120 -232 -199
-384 -260 -500 -32 -60 -89 -171 -128 -245 -131 -255 -224 -435 -277 -535 -29
-55 -85 -163 -125 -240 -40 -77 -102 -196 -137 -265 -36 -69 -94 -179 -128
-245 -34 -66 -91 -175 -126 -242 -34 -68 -64 -121 -66 -119 -2 1 3 16 11 32 8
16 28 59 45 97 17 37 45 97 62 135 17 37 51 112 76 167 47 104 52 116 152 333
34 73 61 135 61 137 0 2 25 56 55 120 30 65 55 119 55 121 0 1 23 51 50 109
28 58 50 108 50 110 0 5 47 109 111 243 27 57 49 106 49 108 0 2 15 36 34 76
18 40 79 172 134 293 55 121 114 249 130 285 17 36 60 131 96 212 36 81 88
195 116 254 27 58 50 108 50 109 0 4 60 135 67 148 2 4 -653 7 -1455 7 l-1460
0 83 -182 c45 -101 96 -212 113 -248 16 -36 50 -110 75 -165 24 -55 148 -328
275 -607 127 -278 240 -526 251 -550 11 -23 34 -74 51 -113 18 -38 110 -241
205 -450 95 -209 187 -410 204 -447 16 -37 37 -82 45 -100 7 -18 35 -78 61
-133 66 -141 42 -107 -50 70 -43 83 -101 195 -130 250 -29 55 -85 163 -125
240 -87 168 -176 339 -257 495 -33 63 -95 183 -138 265 -43 83 -103 200 -135
260 -32 61 -92 178 -135 260 -43 83 -95 182 -115 220 -20 39 -86 165 -145 280
-60 116 -137 264 -172 330 -35 66 -87 166 -115 223 l-52 102 -780 0 -781 0
552 -548z"/>
</g>
</svg>
