<svg width="264" height="58" viewBox="0 0 264 58" xmlns="http://www.w3.org/2000/svg" aria-labelledby="title">
  <title>
    WindyCityRails
  </title>
  <g fill="none" fill-rule="evenodd">
    <g fill="#010101">
      <path
        d="M84.953 9.2h-4.46V4.6h4.447v4.6h.013zm0 39.776h-4.46V13.418h4.447v35.558h.013zM89.4 13.418h8.91a4.382 4.382 0 0 1 3.155 1.34 4.657 4.657 0 0 1 1.307 3.245V48.9h-4.46V18.003h-4.45V48.9h-4.46V13.418zM120.592 48.9h-8.91a4.382 4.382 0 0 1-3.153-1.338 4.657 4.657 0 0 1-1.31-3.247V18.003c0-1.218.472-2.386 1.31-3.246a4.382 4.382 0 0 1 3.152-1.34h4.46V4.602h4.45v44.3zm-8.91-4.585h4.46V18.003h-4.46v26.312zM138.424 57.59h-4.51V48.9h-4.4a4.382 4.382 0 0 1-3.153-1.338 4.657 4.657 0 0 1-1.307-3.247V13.418h4.46v30.897h4.4V13.418h4.462V57.59h.05zM142.885 11.113c0-3.805 2.994-6.89 6.686-6.89 3.693 0 6.686 3.085 6.686 6.89v5.04h-4.46V9.198h-4.437v35.115h4.46v-6.953h4.46v5.04c0 3.804-2.992 6.888-6.685 6.888-3.692 0-6.685-3.084-6.685-6.89V11.114h-.025zM164.078 9.2h-4.497V4.6h4.462v4.6h.036zm0 39.776h-4.497V13.418h4.462v35.558h.036zM177.45 18.003h-4.462v30.973h-4.46V4.6h4.46v8.806h4.46zM193.033 57.59h-4.45V48.9h-4.46a4.382 4.382 0 0 1-3.154-1.338 4.657 4.657 0 0 1-1.308-3.247V13.418h4.46v30.897h4.462V13.418h4.45V57.59zM197.47 4.6h8.91a4.38 4.38 0 0 1 3.205 1.317 4.656 4.656 0 0 1 1.33 3.282v14.018c.134 1.496-.665 2.917-1.994 3.54 1.04.427 1.994 1.36 1.994 4.105v14.75A6.657 6.657 0 0 0 212 48.9h-4.63a7.726 7.726 0 0 1-.966-3.287V29.05h-4.46V48.9h-4.475V4.6zm4.448 19.852h4.46V9.2h-4.46V24.45zM228.684 48.9h-8.91a4.382 4.382 0 0 1-3.153-1.338 4.657 4.657 0 0 1-1.307-3.247v-16.94a4.657 4.657 0 0 1 1.304-3.255 4.383 4.383 0 0 1 3.158-1.343h4.46v-4.774h-7.944v-4.585h7.946c2.457 0 4.448 2.053 4.448 4.585V48.9zm-8.91-4.585h4.462v-16.94h-4.46v16.94zM237.594 9.2h-4.448V4.6h4.448v4.6zm0 39.776h-4.448V13.418h4.448v35.558zM242.055 7.095v-2.86l4.46 4.586V48.9h-4.46zM259.337 18.003h-4.424V28.86h4.45a4.382 4.382 0 0 1 3.153 1.34 4.657 4.657 0 0 1 1.307 3.245v8.93c0 3.806-2.993 6.89-6.686 6.89-3.692 0-6.685-3.084-6.685-6.89V39.68h4.46v4.597h4.45v-10.82h-4.45a4.382 4.382 0 0 1-3.153-1.338 4.657 4.657 0 0 1-1.308-3.247V19.93c0-3.805 2.993-6.89 6.685-6.89 3.693 0 6.686 3.085 6.686 6.89v2.67h-4.46v-4.597h-.026zM58.052 4.64h4.51c0 7.947.244 15.945.244 23.93 0 2.86-.122 5.707-.122 8.566h.122c.782-7.318 1.93-12.218 2.652-17.244h3.68c.72 5.04 1.87 9.926 2.65 17.244h.124c0-2.86-.123-5.706-.123-8.565 0-7.947.183-15.945.244-23.93h4.522L75.15 48.937h-4.155c-1.222-6.638-2.946-13.213-3.667-22.672h-.122c-.66 9.497-2.346 16.072-3.666 22.672h-4.156l-1.332-44.3z"/>
    </g>
    <path d="M45.98 53.346c0 2.032-1.615 3.68-3.607 3.68H0V3.678C0 1.646 1.615 0 3.607 0H45.98v53.346z" fill="#FFF"/>
    <g fill="#B30000">
      <path
        d="M23.35 41.033l5.588-1.692-4.206 4.12 4.23 4.095-5.6-1.655-1.358 5.775-1.394-5.762-5.588 1.68 4.194-4.108-4.218-4.095 5.6 1.656 1.358-5.787zM22.45 22.754l4.23-1.275-3.174 3.113 3.197 3.102-4.242-1.25-1.02 4.364-1.058-4.366-4.23 1.275 3.172-3.115-3.196-3.1 4.242 1.25 1.033-4.378zM27.268 12.198l2.295-.686-1.73 1.692 1.742 1.667-2.295-.673-.565 2.366-.565-2.366-2.295.7 1.718-1.693-1.73-1.68 2.295.687.565-2.378zM34.887 6.387l1.55-.466-1.165 1.142 1.177 1.152-1.563-.466-.372 1.606-.397-1.606-1.55.478 1.165-1.152-1.177-1.14 1.562.453.385-1.606z"/>
      <path
        d="M37.014 0h-5.06C19.975 2.758 1.203 12.493 2.56 46.49l.53 10.518h5.563C2.776 12.382 24.035 2.158 37.013 0zm8.94 33.567V10.8c-7.906 5.37-4.65 15.043 0 22.767zm-3.604 23.44c1.99 0 3.605-1.646 3.605-3.677v-2.612c-19.733-34.523-3.737-41.474 0-42.578V6.13c-27.123 10.298-6.645 45.913-3.63 50.878h.025zM22.46 0H3.606C1.615 0 0 1.647 0 3.678v14.466C5.166 9.594 13.118 3.17 22.46 0z"/>
    </g>
  </g>
</svg>
