<svg width="265" height="48" viewBox="0 0 265 48" xmlns="http://www.w3.org/2000/svg" xmlns:xlink="http://www.w3.org/1999/xlink" aria-labelledby="title">
  <title>
    RubyCaribe
  </title>
  <defs>
    <path id="a" d="M68.902 47.214H0V.14h68.902v47.074z"/>
  </defs>
  <g fill="none" fill-rule="evenodd">
    <path fill="#5AB2D5" d="M1.377 12.058L23.425 33.96V23.01H34.45L12.4 1.107 1.377 12.057"/>
    <path fill="#FFF" d="M12.4 1.107L34.45 23.01l11.026-10.952L34.45 1.108H12.4"/>
    <path fill="#C0372B" d="M34.45 1.107H56.5l11.027 10.95-22.05 21.904V12.06L34.452 1.108"/>
    <g>
      <mask id="b" fill="#fff">
        <use xlink:href="#a"/>
      </mask>
      <path fill="#E2B92B" mask="url(#b)" d="M34.45 23.01v21.903L45.477 33.96V12.06L34.45 23.01"/>
      <path
        d="M14.753 2.074h19.294l10.05 9.984-9.646 9.583L14.754 2.075zm9.076 19.968l-4.54-4.507 4.135-4.108 8.674 8.615h-8.27zm-1.378 9.583L2.754 12.058 12.4 2.475l9.65 9.583-5.514 5.477 5.916 5.875v8.215zm33.644-29.55l10.05 9.983-19.697 19.567V11.657L36.8 2.074h19.294zm-20.67 40.502V23.41l9.075-9.016V33.56l-9.075 9.017zm-1.95 4.67l35.426-35.19-12-11.917H12L0 12.058l24.4 24.238v-12.32h9.076V47.25z"
        fill="#1B1A18"
        mask="url(#b)"/>
    </g>
    <path
      d="M33.75 9.32a2.05 2.05 0 0 1-2.055 2.043A2.05 2.05 0 0 1 29.64 9.32a2.05 2.05 0 0 1 2.055-2.042A2.05 2.05 0 0 1 33.75 9.32M96.21 21.507c3.526 0 4.69-1.77 4.69-3.682s-1.2-3.68-4.69-3.68h-3.56v7.362h3.56zm-10.753 7.976h2.98v-15.34h-2.98v-3.32H96.14c6.54 0 9.01 3.574 9.01 6.93 0 2.563-1.454 4.91-4.47 5.883l3.343 5.847h2.725v3.32h-5.595l-4.54-8.048H92.65v4.728h2.98v3.32H85.457v-3.32zM110.452 28.365v-7.977h-2.434v-3.176h6.54v10.755c0 1.3.472 2.02 1.925 2.02 1.563 0 3.125-.83 4.36-1.768v-7.832h-2.725v-3.176h6.83v12.415h2.4v3.176h-6.396V30.89c-1.525 1.227-3.45 2.31-5.813 2.31-2.87 0-4.688-1.624-4.688-4.835M141.443 24.72c0-2.563-.945-4.873-3.816-4.873-1.162 0-2.252.36-3.197.866v9.347c.437.037.945.072 1.454.072 3.742 0 5.56-1.84 5.56-5.413zm-11.118 7.903v-22.16h-2.4V7.288h6.505v10.61a8.466 8.466 0 0 1 4.214-1.082c4.433 0 6.977 2.996 6.977 7.868 0 5.774-3.596 8.517-9.554 8.517-1.962 0-4.325-.288-5.74-.577zM148.27 39.19l1.164-2.706c.763.398 1.562.794 2.652.794.836 0 1.925-.216 2.434-1.804l.836-2.67h-3.016l-3.633-12.45h-1.852V17.21h8.174v3.176h-2.108l2.906 10.972 3.56-10.972h-2.143v-3.176h7.92v3.14h-1.78l-5.268 15.627c-.945 2.815-2.543 4.402-5.45 4.402-1.635 0-3.27-.505-4.396-1.19M167.15 21.94c0-7.29 4.904-11.548 11.806-11.548 3.56 0 6.867 1.118 8.247 1.768v6.316h-4.033v-4.043c-1.053-.29-2.616-.542-3.996-.542-4.54 0-7.665 2.78-7.665 7.833 0 5.198 3.34 7.904 7.918 7.904 3.016 0 5.776-1.155 7.738-2.31v4.006c-1.524.794-4.396 1.914-8.1 1.914-7.267 0-11.917-4.223-11.917-11.297M199.227 28.617v-2.49h-2.398c-2.144 0-3.38.54-3.38 2.128 0 .975.473 2.06 2.253 2.06 1.526 0 2.69-.832 3.524-1.698zm-9.883-.18c0-3.754 3.234-4.837 7.304-4.837h2.58v-.974c0-1.877-.765-2.707-3.38-2.707-1.89 0-3.997.433-5.196.793V17.68c1.417-.432 3.816-.865 6.067-.865 4.214 0 6.612 1.48 6.612 5.74v7.072h2.326v3.176h-6.213v-1.768c-1.018 1.046-2.616 2.165-4.977 2.165-2.943 0-5.124-1.696-5.124-4.763zM207.183 29.627h2.397v-9.24h-2.397v-3.175h6.358v2.852c.8-1.48 2.362-3.25 5.197-3.25h.326v4.115h-.654c-2.327 0-3.852.47-4.724 1.01v7.687h2.724v3.176h-9.227v-3.176M225.02 9.344c1.562 0 2.834 1.264 2.834 2.816 0 1.552-1.272 2.815-2.834 2.815s-2.834-1.263-2.834-2.815 1.272-2.816 2.834-2.816zm-4.25 20.283h2.397v-9.24h-2.398v-3.175h6.502v12.415h2.397v3.176h-8.9v-3.176zM243.766 24.72c0-2.563-.944-4.873-3.814-4.873-1.163 0-2.253.36-3.198.866v9.347c.436.037.945.072 1.454.072 3.742 0 5.558-1.84 5.558-5.413zm-11.117 7.903v-22.16h-2.4V7.288h6.504v10.61a8.467 8.467 0 0 1 4.215-1.082c4.432 0 6.974 2.996 6.974 7.868 0 5.774-3.596 8.517-9.555 8.517-1.963 0-4.324-.288-5.74-.577zM254.193 23.456h6.938c-.144-1.84-.87-3.682-3.267-3.682-2.363 0-3.38 1.733-3.67 3.682zm-4.107 1.552c0-4.728 2.726-8.193 7.704-8.193 4.94 0 7.194 3.465 7.194 7.76a9.53 9.53 0 0 1-.147 1.73H254.23c.4 2.456 1.888 3.792 4.72 3.792 2.145 0 3.817-.794 5.052-1.444v3.14c-1.235.686-3.125 1.407-5.668 1.407-5.522 0-8.248-3.465-8.248-8.192z"
      fill="#1B1A18"/>
  </g>
</svg>
