<svg xmlns="http://www.w3.org/2000/svg" width="460" height="292" viewBox="0 0 460 292">
  <g fill="none" fill-rule="evenodd">
    <g transform="translate(67.698)">
      <polygon fill="#231F20" points="227.443 26.23 199.366 54.338 227.652 82.64 255.934 54.739"/>
      <polygon fill="#00AEEF" points="86.278 37.125 123.716 74.607 161.068 37.478 123.632 0"/>
      <polygon fill="#00AEEF" points="75.491 48.192 112.929 85.669 75.491 123.153 .622 123.148"/>
      <path fill="#00AEEF" d="M209.192377,85.6690365 L171.761396,48.1915485 L171.745774,48.2011068 L171.763132,48.2202236 C148.37083,71.9710276 148.535736,99.3201224 171.761396,123.096995 L171.761396,123.152607 L171.756189,123.147393 L246.628566,123.152607 L209.186302,85.6690365"/>
      <polygon fill="#231F20" points="268.203 66.992 240.073 95.05 268.203 123.153 324.362 123.153 296.283 95.05"/>
    </g>
    <g transform="translate(0 181.609)">
      <g transform="translate(368 20.855)">
        <path d="M91.6762642,1.15743135 L0.454792453,1.15743135"/>
        <rect width="91.222" height="1.738" x=".455" y=".288" fill="#231F20"/>
      </g>
      <g transform="translate(0 20.855)">
        <path d="M91.9279623,1.15743135 L0.703886792,1.15743135"/>
        <rect width="91.224" height="1.738" x=".704" y=".288" fill="#231F20"/>
      </g>
      <g fill="#231F20" transform="translate(124.981)">
        <path d="M19.5578113 29.942888C19.7756604 31.1229119 19.7470189 32.2551439 19.4779623 33.3361083 19.2080377 34.4153348 18.7428302 35.4076671 18.0875472 36.3061536 17.4322642 37.2020333 16.6033962 37.9693094 15.6009434 38.6018995 14.5967547 39.2353586 13.4632453 39.6776503 12.1952075 39.9374641 10.5305283 40.2798274 8.98562264 40.3571633 7.5509434 40.1738164 6.11626415 39.9904696 4.67377358 39.6255138 3.2165283 39.0772111 3.59233962 37.8450507 3.78154717 37.2307084 4.16516981 35.998548 5.45577358 36.5338165 6.76113208 36.8944276 8.07864151 37.0934154 9.39701887 37.2915343 10.6268679 37.2732865 11.7690566 37.039541 12.6986038 36.8492426 13.4849434 36.5511954 14.1211321 36.1393166 14.7581887 35.7257 15.2572453 35.242568 15.6191698 34.6803623 15.9810943 34.1198944 16.2189057 33.5142415 16.3308679 32.8703551 16.4428302 32.2238619 16.4367547 31.5756309 16.3117736 30.9204483 16.1911321 30.289596 15.9993208 29.7291282 15.7363396 29.2364378 15.4742264 28.7463542 15.0871321 28.3040625 14.5759245 27.9147763 14.064717 27.5254901 13.3781887 27.1744373 12.5146038 26.8720454 11.6484151 26.5679155 10.5504906 26.274213 9.22169811 26.0048408 7.80958491 25.7224345 6.5849434 25.4017947 5.566 25.0316253 4.5470566 24.6605868 3.68607547 24.2174262 2.98826415 23.7030122 2.29045283 23.1868604 1.72977358 22.5985864 1.31316981 21.9407969.894830189 21.2795317.590188679 20.5218139.400981132 19.6615609.170981132 18.6196989.17445283 17.5795748.413132075 16.5446643.651811321 15.5097538 1.10486792 14.5400141 1.77403774 13.6467412 2.44320755 12.7534684 3.3154717 11.9670755 4.39083019 11.2927761 5.46445283 10.6202147 6.70558491 10.1379516 8.11075472 9.85641425 9.43173585 9.59051786 10.7214717 9.527954 11.9721509 9.66785374 13.224566 9.80775347 14.352 10.0840772 15.3570566 10.4924801 14.95 11.6751108 14.7477736 12.2685985 14.3476604 13.4503602 13.4962264 13.0697634 12.5545283 12.8099496 11.5286415 12.6709189 10.5018868 12.5318881 9.48207547 12.562301 8.47528302 12.7630268 7.52577358 12.955063 6.70558491 13.2591929 6.02079245 13.6745474 5.33426415 14.0899019 4.80135849 14.5617376 4.4194717 15.0909236 4.03758491 15.6192406 3.78328302 16.2066457 3.65830189 16.8461873 3.53332075 17.4865979 3.54113208 18.1339601 3.68 18.7865358 3.89090566 19.7779992 4.47849057 20.6052324 5.43754717 21.2743181 6.39660377 21.9434038 7.89203774 22.4890996 9.91603774 22.9227019 11.6128302 23.2867888 13.0396981 23.6804197 14.1966415 24.0966432 15.3518491 24.5128666 16.2978868 24.9881781 17.0321509 25.5277914 17.767283 26.0674047 18.3279623 26.6982569 18.7124528 27.4116586 19.0960755 28.1276672 19.3790189 28.9731482 19.5578113 29.942888L19.5578113 29.942888zM52.382717 18.2643014C52.6283396 20.4401333 52.4408679 22.4934443 51.8385283 24.431186 51.2353208 26.3680587 50.3326792 28.0885648 49.1366792 29.5909663 47.9406792 31.0942367 46.4990566 32.3298729 44.8083396 33.3074332 43.1176226 34.2849934 41.2915094 34.9184525 39.3230566 35.2017277 37.3528679 35.4867409 35.4399623 35.4007155 33.5661132 34.9367003 31.6931321 34.4752918 29.9841887 33.6915057 28.4358113 32.5862109 26.8891698 31.4817851 25.5699245 30.0810498 24.4824151 28.3883499 23.3957736 26.6982569 22.6563019 24.778763 22.2761509 22.6177031 21.8916604 20.4366576 21.9489434 18.3633609 22.4627547 16.3891236 22.976566 14.4174932 23.8306038 12.65354 25.0248679 11.1007398 26.2182642 9.55315333 27.7041509 8.24278811 29.4781887 7.19831928 31.2504906 6.15124363 33.1903019 5.4752064 35.2863396 5.17194548 37.3806415 4.86694668 39.4176604 4.97295766 41.3843774 5.47955111 43.3493585 5.9870135 45.1129811 6.82032932 46.667434 7.97341595 48.2210189 9.12650259 49.4994717 10.5863259 50.5062642 12.336376 51.5130566 14.0864261 52.1336226 16.0589255 52.382717 18.2643014L52.382717 18.2643014zM48.7886415 18.6840006C48.5812075 16.9643635 48.1064528 15.3933156 47.356566 13.9804151 46.6066792 12.5657768 45.6424151 11.3735878 44.4681132 10.4099306 43.2938113 9.44540447 41.9424528 8.74156108 40.4270566 8.31404139 38.9099245 7.88739065 37.2860377 7.79354486 35.5684151 8.04293135 33.8507925 8.29231783 32.3136981 8.83888264 30.9632075 9.6834947 29.612717 10.5272378 28.5104528 11.582134 27.6546792 12.8403626 26.7989057 14.1011981 26.2121887 15.5201812 25.8919245 17.0903602 25.5707925 18.6588013 25.5586415 20.2958889 25.8467925 22.0050987 26.1349434 23.7160464 26.6826038 25.2601571 27.4836981 26.6417756 28.2847925 28.0242631 29.2750943 29.1764808 30.4476604 30.1071181 31.6210943 31.0360176 32.9429434 31.7059722 34.4184151 32.1135062 35.8938868 32.5201713 37.444 32.6018519 39.076566 32.3663685 40.7091321 32.1308851 42.1663774 31.6138643 43.4526415 30.8066168 44.7371698 30.0002382 45.8099245 28.9887892 46.6709057 27.7618424 47.5301509 26.5375025 48.1515849 25.1480635 48.5291321 23.5970013 48.9066792 22.045939 48.9960755 20.4036377 48.7886415 18.6840006L48.7886415 18.6840006zM60.1619245 5.58816892C60.5629057 9.84251117 60.7642642 11.9731581 61.1661132 16.2266314 66.3745283 15.7356789 68.9826415 15.5210501 74.198 15.1682595 74.2752453 16.3170014 74.313434 16.8922413 74.3915472 18.0453279 69.206566 18.3946428 66.6140755 18.6066648 61.4360377 19.0958794 61.9203396 24.2269845 62.1633585 26.7955784 62.6467925 31.9310283 61.3622642 32.0526803 60.72 32.1135062 59.4354717 32.2421097 58.4521132 22.51343 57.4670189 12.7812745 56.4836604 3.05259484 63.7933208 2.31051798 67.4542264 2.00725707 74.7786415 1.53368343 74.8524151 2.6832943 74.8897358 3.25766526 74.9635094 4.41162084 69.0390566 4.79221763 66.0776981 5.02770103 60.1619245 5.58816892L60.1619245 5.58816892zM91.057434 3.62783474C91.3421132 12.4432559 91.6267925 21.2569392 91.9114717 30.0732294 90.6234717 30.1149386 89.9786038 30.1375311 88.6914717 30.1896677 88.3477736 21.3751154 88.0006038 12.5657768 87.6577736 3.75209351 83.4952075 3.91545469 81.4147925 4.01972779 77.2548302 4.26911427 77.1853962 3.11863446 77.1515472 2.54252562 77.0829811 1.39117687 85.1772453.904569094 93.2836604.613473372 101.391811.52049653 101.405698 1.67184528 101.410038 2.24969201 101.423925 3.4019097 97.2761132 3.4488326 95.2035094 3.4940176 91.057434 3.62783474L91.057434 3.62783474zM131.052264 30.9013315C130.791887 30.9195793 130.66083 30.9273998 130.401321 30.9499923 127.669094 23.0400091 124.779774 15.1839004 121.754189 7.38340403 118.335434 14.9988157 115.055547 22.6759223 111.911925 30.4086412 111.655019 30.3738835 111.525698 30.3547667 111.267925 30.320878 108.644189 20.3349913 105.843396 10.3942896 102.886377.505724508 104.271585.491821429 104.964189.488345659 106.348528.487476716 108.843811 9.12563364 110.038943 13.4573118 112.322453 22.1250127 115.963396 13.4208162 117.869358 9.08740018 121.82883.456194788 121.999811.462277385 122.084868.46401527 122.254981.469228925 125.724943 9.26900915 127.380075 13.6841058 130.52717 22.5368915 133.295849 14.0647025 134.732264 9.83729751 137.708377 1.40681783 139.091849 1.49110525 139.783585 1.53368343 141.163585 1.62752922 137.634604 11.324927 134.260981 21.0883644 131.052264 30.9013315L131.052264 30.9013315zM163.278302 33.1432031C162.268038 29.7491138 161.750755 28.055545 160.692755 24.6640626 155.342868 24.0670991 152.665321 23.8090232 147.304151 23.35978 145.614302 26.4818902 144.780226 28.0468556 143.136377 31.1802621 141.800642 31.0812026 141.131472 31.029935 139.796604 30.9404339 144.913887 21.2621529 150.282 11.7202958 155.884453 2.31920741 156.109245 2.33832414 156.221208 2.35135828 156.443396 2.37308184 160.13034 12.6804772 163.561245 23.0834563 166.721358 33.5646401 165.34483 33.3899827 164.656566 33.3048264 163.278302 33.1432031L163.278302 33.1432031zM155.478264 8.74764368C152.717396 13.545075 151.36517 15.9537834 148.717132 20.7859724 153.153094 21.1665692 155.371509 21.3829359 159.801396 21.8634611 158.130642 16.6124418 157.265321 13.9908424 155.478264 8.74764368L155.478264 8.74764368zM186.416302 36.4747284C184.078981 31.3879393 182.869962 28.8488894 180.374679 23.7855618 180.042264 23.7647072 179.714189 23.7334252 179.384377 23.6977986 179.053698 23.6621719 178.713472 23.616118 178.358491 23.5648504 177.868113 23.4918592 177.300491 23.4023582 176.663434 23.2954782 176.023774 23.1903362 175.457887 23.0904078 174.971849 22.9913484 174.328717 27.571544 174.008453 29.8664211 173.364453 34.4492236 172.08166 34.2693525 171.443736 34.1798514 170.163547 34.0095387 171.444604 24.4077246 172.72566 14.8076483 174.006717 5.20757212 175.183623 5.22929568 176.364 5.27708752 177.537434 5.3483408 178.711736 5.4178562 179.946792 5.54819756 181.246943 5.74197173 183.253585 6.04088794 184.976415 6.53097148 186.400679 7.20440188 187.829283 7.87696334 188.968 8.68855559 189.819434 9.62788238 190.671736 10.5672092 191.250642 11.6151538 191.558755 12.7630268 191.866 13.9117687 191.905057 15.1039577 191.691547 16.3404628 191.343509 18.3650988 190.475585 20.0030553 189.106 21.2569392 187.738151 22.5116921 185.939811 23.2937403 183.704906 23.6135112 186.422377 29.007037 187.737283 31.7120548 190.269887 37.1377315 188.73366 36.8718351 187.961208 36.7336733 186.416302 36.4747284L186.416302 36.4747284zM188.087057 15.9372735C188.225925 15.0943994 188.188604 14.2775935 187.97683 13.4868558 187.763321 12.6961182 187.379698 11.9731581 186.824226 11.3327475 186.264415 10.6897301 185.529283 10.1292622 184.610151 9.66350902 183.689283 9.19601798 182.59917 8.86408197 181.332 8.67378357 180.601208 8.56342788 179.846981 8.47479575 179.068453 8.40267352 178.290792 8.3305513 177.604264 8.32186188 177.025358 8.37486736 176.362264 13.1001764 176.031585 15.4610931 175.371094 20.1872711 175.858868 20.309792 176.440377 20.4383954 177.12517 20.5756884 177.803019 20.7138502 178.432264 20.8276817 179.008566 20.9154449 181.832792 21.3325372 183.967019 21.0953159 185.427736 20.1698922 186.888453 19.2444685 187.775472 17.8315681 188.087057 15.9372735L188.087057 15.9372735zM193.81883 37.7842247C195.600679 28.1719833 197.380792 18.5553971 199.160038 8.94141784 206.404604 10.2865408 210.018642 11.023404 217.222415 12.6370301 216.971585 13.7623106 216.845736 14.3245163 216.595774 15.4506658 210.768528 14.1463831 207.846226 13.5389924 201.992943 12.4102361 201.228302 16.3865168 200.845547 18.3755261 200.080906 22.3518067 205.241585 23.3476148 207.816717 23.8794076 212.956566 25.0125085 212.710075 26.137789 212.585962 26.6999948 212.338604 27.8252752 207.229132 26.696519 204.667019 26.1716778 199.536717 25.1810834 198.739094 29.3302836 198.338981 31.407925 197.541358 35.5553873 203.120377 36.6302691 205.905547 37.206378 211.458528 38.4498346 211.207698 39.5742462 211.081849 40.135583 210.831019 41.2608635 204.046453 39.7489036 200.641585 39.0502739 193.81883 37.7842247L193.81883 37.7842247z"/>
      </g>
    </g>
    <g fill="#231F20" transform="translate(2.604 249.386)">
      <path d="M35.7203019 38.5958169C34.0139623 39.6733056 32.0116604 40.5822194 29.7133962 41.3251652 27.4133962 42.067242 24.9849434 42.4391494 22.4263019 42.4391494 19.2002264 42.4391494 16.2423396 41.9099635 13.5543774 40.8515916 10.8655472 39.7932196 8.54818868 38.3281827 6.60143396 36.4530049 4.65467925 34.578696 3.14362264 32.359417 2.06826415 29.7986436.992037736 27.2370012.455660377 24.4337928.455660377 21.3890185.455660377 18.3816087 1.00245283 15.5888276 2.09690566 13.0071996 3.19049057 10.4273094 4.71109434 8.19065156 6.65784906 6.29722596 8.60460377 4.40293141 10.9219623 2.92746713 13.6107925 1.86909522 16.2987547.811592251 19.2366792.282406297 22.4271698.282406297 24.9858113.282406297 27.3778113.635196933 29.6023019 1.34077821 31.8267925 2.04635948 33.8108679 2.93789443 35.5536604 4.01364519L33.1616604 9.91637128C31.5299623 8.98920968 29.7689434 8.23670551 27.8777358 7.66059667 25.9865283 7.08622571 24.1326415 6.79773681 22.3152075 6.79773681 20.090717 6.79773681 18.0875472 7.15139639 16.3083019 7.85610872 14.5281887 8.56168999 13.0171321 9.55489122 11.7751321 10.8357124 10.5322642 12.1165336 9.57841509 13.6571685 8.91098113 15.4576173 8.24354717 17.258935 7.90939623 19.2357791 7.90939623 21.3881495 7.90939623 23.5422579 8.25222642 25.5086747 8.93875472 27.2908756 9.62441509 29.0730766 10.5982264 30.6041532 11.8584528 31.8849744 13.1186792 33.1666645 14.6479623 34.1598657 16.4471698 34.8645781 18.2455094 35.5701593 20.2573585 35.92295 22.482717 35.92295 24.299283 35.92295 26.1904906 35.6266406 28.1563396 35.0322839 30.1213208 34.4387963 31.9387547 33.6593549 33.6069057 32.6939598L35.7203019 38.5958169 35.7203019 38.5958169zM63.9764528 41.7700637L55.0767547 27.0684264C54.705283 27.1057909 54.3537736 27.1240387 54.0196226 27.1240387L52.9069434 27.1240387C52.2395094 27.1240387 51.5625283 27.1144803 50.8768679 27.0962325 50.1903396 27.0779847 49.5142264 27.0493096 48.8467925 27.0119451L48.8467925 41.7691948 41.894717 41.7691948 41.894717 1.33990926C43.5264151 1.15482452 45.2041132.996676994 46.9286792.866335626 48.6523774.7368632 50.5522642.670823574 52.6300755.670823574 55.5228679.670823574 58.0155472 1.00536642 60.1115849 1.67358317 62.2058868 2.34179991 63.94 3.25158266 65.3121887 4.40206247 66.6835094 5.55341122 67.6946415 6.9080925 68.3438491 8.46784421 68.9921887 10.0275959 69.3176604 11.71682 69.3176604 13.5355166 69.3176604 16.2083836 68.6311321 18.5666934 67.2598113 20.6078392 65.8867547 22.6507229 63.9226415 24.2278535 61.364 25.3418377L72.0438113 41.7691948 63.9764528 41.7691948 63.9764528 41.7700637zM61.9741509 13.8709284C61.9741509 11.7915491 61.2320755 10.1118833 59.7496604 8.83106215 58.2663774 7.54937203 56.189434 6.90896145 53.5196981 6.90896145 52.6665283 6.90896145 51.8506792 6.92807818 51.0721509 6.96457376 50.2936226 7.00193829 49.5515472 7.09491513 48.8476604 7.24263535L48.8476604 21.1648313C49.4777736 21.2395604 50.1356604 21.2943038 50.8221887 21.3307993 51.5078491 21.3690328 52.1848302 21.3864117 52.8522642 21.3864117 55.8917358 21.3864117 58.1726415 20.7181949 59.6941132 19.3817614 61.2138491 18.0479348 61.9741509 16.2092525 61.9741509 13.8709284L61.9741509 13.8709284zM103.635396 41.7700637L99.6863396 32.4141603 83.5559623 32.4141603 79.6069057 41.7700637 72.4309057 41.7700637 91.2318868.393630931 92.2334717.393630931 110.978038 41.7700637 103.635396 41.7700637 103.635396 41.7700637zM91.620717 13.258324L85.836 26.9015894 97.405434 26.9015894 91.620717 13.258324 91.620717 13.258324z"/>
      <polygon points="122.213 7.299 122.213 19.217 137.955 19.217 137.955 25.397 122.213 25.397 122.213 41.77 115.26 41.77 115.26 .951 140.124 .951 140.124 7.299 122.213 7.299"/>
      <polygon points="162.985 7.299 162.985 41.77 156.032 41.77 156.032 7.299 143.071 7.299 143.071 .951 175.889 .951 175.889 7.299"/>
      <path d="M204.923925,30.2435421 C204.923925,31.8771539 204.617547,33.4369056 204.00566,34.9210593 C203.393774,36.406082 202.504151,37.7051509 201.335925,38.8191352 C200.167698,39.9322504 198.758189,40.815096 197.108264,41.464196 C195.457472,42.113296 193.575811,42.4391494 191.462415,42.4391494 C189.125962,42.4391494 186.854604,42.067242 184.64834,41.3251652 C182.442075,40.5830883 180.448453,39.6176933 178.66834,38.42898 L181.06034,32.1917111 C182.69117,33.3804243 184.425283,34.3084549 186.260943,34.9766716 C188.096604,35.6448884 189.904491,35.9785623 191.684604,35.9785623 C192.759962,35.9785623 193.686906,35.8308421 194.465434,35.5327948 C195.243962,35.2356165 195.883623,34.8463303 196.384415,34.3631983 C196.885208,33.8809352 197.254943,33.3143847 197.497094,32.6644158 C197.737509,32.0153157 197.859019,31.3384096 197.859019,30.6319594 C197.859019,29.9263781 197.766151,29.2764091 197.581283,28.6829214 C197.395547,28.0894337 197.024943,27.5055044 196.468604,26.9285266 C195.912264,26.3532867 195.133736,25.7684885 194.132151,25.1741318 C193.130566,24.5797752 191.814792,23.948923 190.183094,23.2798373 C186.622868,21.758319 184.120642,20.0595365 182.673811,18.1852277 C181.227849,16.3109188 180.504868,14.148121 180.504868,11.6968344 C180.504868,10.2126807 180.80083,8.78240138 181.394491,7.40860336 C181.987283,6.03567428 182.858679,4.82002379 184.008679,3.76165188 C185.157811,2.70327997 186.567321,1.85953685 188.23634,1.22781569 C189.905358,0.596094523 191.796566,0.280668412 193.909962,0.280668412 C195.912264,0.280668412 197.821698,0.568288364 199.639132,1.14352827 C201.455698,1.71963712 202.957208,2.41566002 204.144528,3.23159698 L201.920038,9.35764128 C201.363698,8.98660285 200.760491,8.62512279 200.112151,8.27146321 C199.462943,7.91954152 198.777283,7.61280483 198.054302,7.35299104 C197.331321,7.09317725 196.60834,6.8794174 195.884491,6.71258045 C195.161509,6.5457435 194.447208,6.46232503 193.743321,6.46232503 C191.592604,6.46232503 190.006906,6.96283588 188.987962,7.96472653 C187.968151,8.96748612 187.458679,10.1553305 187.458679,11.5291285 C187.458679,12.9037954 188.005472,14.0629647 189.099925,15.0101119 C190.193509,15.9572592 192.000528,16.986956 194.523585,18.1009402 C196.525887,18.9916063 198.194038,19.8744518 199.529774,20.7460011 C200.864642,21.6192882 201.930453,22.5377604 202.728075,23.5031555 C203.52483,24.4685505 204.090717,25.4991163 204.424868,26.5939838 C204.757283,27.6905892 204.923925,28.9071086 204.923925,30.2435421 L204.923925,30.2435421 Z"/>
      <polygon points="245.528 41.77 244.972 17.322 232.122 36.814 231.288 36.814 218.327 17.268 217.882 41.77 211.041 41.77 212.765 .449 213.822 .338 231.9 27.402 249.532 .338 250.644 .449 252.368 41.77 245.528 41.77"/>
      <path d="M287.300377,41.7700637 L283.351321,32.4141603 L267.220943,32.4141603 L263.271019,41.7700637 L256.095019,41.7700637 L274.896,0.393630931 L275.897585,0.393630931 L294.642151,41.7700637 L287.300377,41.7700637 L287.300377,41.7700637 Z M275.286566,13.258324 L269.500981,26.9015894 L281.070415,26.9015894 L275.286566,13.258324 L275.286566,13.258324 Z"/>
      <polygon points="331.41 42.55 305.878 15.597 305.878 41.77 298.925 41.77 298.925 .394 300.037 .171 325.235 26.734 325.235 .951 332.188 .951 332.188 42.383"/>
      <path d="M364.282679,30.2435421 C364.282679,31.8771539 363.975434,33.4369056 363.363547,34.9210593 C362.75166,36.406082 361.862038,37.7051509 360.693811,38.8191352 C359.525585,39.9322504 358.116075,40.815096 356.467019,41.464196 C354.817094,42.113296 352.935434,42.4391494 350.82117,42.4391494 C348.485585,42.4391494 346.213358,42.067242 344.007094,41.3251652 C341.80083,40.5830883 339.807208,39.6176933 338.027094,38.42898 L340.419094,32.1917111 C342.049925,33.3804243 343.784038,34.3084549 345.619698,34.9766716 C347.455358,35.6448884 349.262377,35.9785623 351.042491,35.9785623 C352.117849,35.9785623 353.04566,35.8308421 353.824189,35.5327948 C354.601849,35.2356165 355.242377,34.8463303 355.74317,34.3631983 C356.243094,33.8809352 356.614566,33.3143847 356.854981,32.6644158 C357.095396,32.0153157 357.216906,31.3384096 357.216906,30.6319594 C357.216906,29.9263781 357.124038,29.2764091 356.93917,28.6829214 C356.753434,28.0894337 356.381962,27.5055044 355.826491,26.9285266 C355.270151,26.3532867 354.492491,25.7684885 353.490906,25.1741318 C352.489321,24.5797752 351.173547,23.948923 349.540981,23.2798373 C345.980755,21.758319 343.479396,20.0595365 342.032566,18.1852277 C340.586604,16.3109188 339.863623,14.148121 339.863623,11.6968344 C339.863623,10.2126807 340.160453,8.78240138 340.753245,7.40860336 C341.346038,6.03567428 342.218302,4.82002379 343.367434,3.76165188 C344.516566,2.70327997 345.926075,1.85953685 347.595094,1.22781569 C349.263245,0.596094523 351.155321,0.280668412 353.268717,0.280668412 C355.271019,0.280668412 357.180453,0.568288364 358.997887,1.14352827 C360.814453,1.71963712 362.315962,2.41566002 363.502415,3.23159698 L361.278792,9.35764128 C360.722453,8.98660285 360.119245,8.62512279 359.470038,8.27146321 C358.821698,7.91954152 358.136038,7.61280483 357.412189,7.35299104 C356.690075,7.09317725 355.966226,6.8794174 355.243245,6.71258045 C354.520264,6.5457435 353.805962,6.46232503 353.101208,6.46232503 C350.950491,6.46232503 349.364792,6.96283588 348.345849,7.96472653 C347.32517,8.96748612 346.815698,10.1553305 346.815698,11.5291285 C346.815698,12.9037954 347.362491,14.0629647 348.456943,15.0101119 C349.550528,15.9572592 351.358415,16.986956 353.880604,18.1009402 C355.882906,18.9916063 357.551057,19.8744518 358.886792,20.7460011 C360.220792,21.6192882 361.287472,22.5377604 362.085094,23.5031555 C362.882717,24.4685505 363.447736,25.4991163 363.781019,26.5939838 C364.11517,27.6905892 364.282679,28.9071086 364.282679,30.2435421 L364.282679,30.2435421 Z"/>
      <polygon points="396.654 41.77 396.654 24.228 377.908 24.228 377.908 41.77 370.956 41.77 370.956 .951 377.908 .951 377.908 17.991 396.654 17.991 396.654 .951 403.607 .951 403.607 41.77"/>
      <polygon points="412.785 41.77 412.785 .951 419.737 .951 419.737 41.77"/>
      <path d="M456.168981,14.4279205 C456.168981,16.5081687 455.807925,18.4189732 455.085811,20.1638096 C454.361962,21.909515 453.314377,23.404096 451.943057,24.6466837 C450.57,25.8918783 448.873208,26.8659628 446.852679,27.5706751 C444.832151,28.2753874 442.523472,28.6281781 439.927509,28.6281781 C439.259208,28.6281781 438.583094,28.6099303 437.898302,28.5734347 C437.210038,28.5369391 436.53566,28.4995746 435.867358,28.4622101 L435.867358,41.7709327 L428.913547,41.7709327 L428.913547,1.34164715 C432.548415,0.895879669 435.995811,0.672561459 439.259208,0.672561459 C442.040906,0.672561459 444.488453,1.03491046 446.602717,1.75873953 C448.716981,2.48256859 450.486679,3.46708039 451.913547,4.7096681 C453.341283,5.95486263 454.407094,7.41034124 455.112717,9.08131758 C455.816604,10.7522939 456.168981,12.5344949 456.168981,14.4279205 L456.168981,14.4279205 Z M448.93917,14.6495008 C448.93917,13.6476102 448.762981,12.6917735 448.410604,11.7819907 C448.058226,10.872208 447.528792,10.0649604 446.825774,9.35937916 C446.121019,8.65379789 445.230528,8.09767472 444.156038,7.68840283 C443.079811,7.27999987 441.838679,7.0757984 440.428302,7.0757984 C438.834792,7.0757984 437.314189,7.18789197 435.868226,7.41034124 L435.868226,22.3352968 C436.572113,22.4100259 437.239547,22.4656382 437.870528,22.5021338 C438.501509,22.5394983 439.131623,22.5568771 439.762604,22.5568771 C442.914038,22.5568771 445.231396,21.8243587 446.714679,20.3575838 C448.197094,18.8916779 448.93917,16.9895628 448.93917,14.6495008 L448.93917,14.6495008 Z"/>
    </g>
  </g>
</svg>
