<svg width="375" height="140" viewBox="0 0 375 140" xmlns="http://www.w3.org/2000/svg" aria-labelledby="title">
  <title>
    ChicagoRuby
  </title>
  <g fill="none" fill-rule="evenodd">
    <path d="M261.45 22.85l22.4-10.342h16.966v49.84l-.003.007.003-.007v.003l-.003.005h-.002v-.002L263.264 24.67l-1.813-1.82zm39.366-10.342h16.966l22.396 10.342-1.814 1.82-37.548 37.68v-.002l.004-.007-.004.008v-49.84z" fill="#FFF"/>
    <path fill="#D1222B" d="M261.235 22.848l22.52-10.342h8.243l-11.636 10.342h-19.127"/>
    <path fill="#DD654E" d="M300.813 62.35l-37.756-37.68H281.3l19.513 37.68M338.568 24.67l-37.755 37.683 19.51-37.684h18.245"/>
    <path fill="#D1222B" d="M317.87 12.506l22.52 10.342h-19.123l-11.64-10.342h8.242"/>
    <path fill="#E48469" d="M317.9 24.67l-17.087 37.683-17.087-37.684H317.9"/>
    <path fill="#DA5542" d="M308.533 12.506l10.192 10.342H282.9l10.193-10.342h15.44"/>
    <g fill="#D0232B">
      <path
        d="M255.397 69.5l-.002.216-.005.22v.005l-.01.21-.006.22v.01l-.015.205-.015.217v.014l-.02.2-.015.217-.002.02-.026.188-.023.217-.006.027-.025.183-.03.216-.002.027-.033.18v.006l-.12.662-.04.168-.004.026-.087.384-.05.204-.01.047a17.247 17.247 0 0 1-.556 1.748l-.075.194-.026.063-.112.283-.023.054c-.18.442-.39.868-.61 1.292l-.096.183-.008.014a16.974 16.974 0 0 1-1.788 2.685l-.033.04a17.2 17.2 0 0 1-1.05 1.18C247.35 84.72 243 86.71 238.207 86.71c-5.083 0-10.13.024-15.184.05-5 .02-10.01.043-15.07.043-9.494 0-17.268-7.715-17.268-17.155V43.686h-.037v-.007h47.558c4.36 0 8.34 1.648 11.38 4.334l.02.022.087.09 1.28 1.256.087.105c4.237 4.29 4.29 5.082 4.335 11.763v8.25zm93.688-44.23a58665.198 58665.198 0 0 1-46.62 46.602l-1.647 1.646c-12.503-12.477-24.97-24.97-37.456-37.453l-.323-.335-.164-.142c-6.404-6.243-15.107-10.096-24.668-10.096H190.65V1l-18.19 18.186V69.647c0 19.396 15.977 35.25 35.494 35.25h30.253c16.42 0 30.326-11.344 34.266-26.58l-.01-.01c.537-2.066.885-4.2 1.033-6.387l.012.01 2.287 2.283.11.117 12.064 12.057c-15.982 15.974-11.17 11.13-27.168 27.125v25.71c37.955-38.025 75.98-75.985 113.99-113.953-15.804 0-9.9-.03-25.707 0zM165.95 53.816V25l-18.24 18.27V60.71h.075v8.745c0 9.52-7.772 17.3-17.254 17.3h-30.42c-9.5 0-17.274-7.78-17.274-17.3V25.015l-13.58 13.603-4.645 4.654V69.455a35.292 35.292 0 0 0 4.646 17.526C75.383 97.723 86.94 105 100.11 105h30.42C150.053 105 166 89.014 166 69.453v-13.42c0-.75-.012-1.484-.05-2.217M69.902 25h-34.39C15.972 25 0 40.943 0 60.393v28.293L18.247 107V60.393c0-9.458 7.765-17.203 17.265-17.203h20.795l13.595-13.555L74.552 25H69.9z"/>
    </g>
    <g fill="#595959">
      <path
        d="M21.733 18.514h6.795v-4.02H15.06c-2.084 0-3.78-1.698-3.784-3.787V8.784A3.794 3.794 0 0 1 15.06 5H28.53V.983H15.06c-4.135 0-7.534 3.28-7.765 7.365h-.017v2.805h.017c.23 4.085 3.63 7.36 7.766 7.36h6.673zm32.906-7.17v7.17h-4v-6.672H36.4l-.002 6.672h-4.003V1.154H36.4V7.83l14.24-.003V1.154h4v10.19zM87.625 14.5h.004v4.014H74.162c-4.134 0-7.542-3.274-7.78-7.36h-.01V8.35h.01C66.62 4.262 70.03.983 74.163.983H87.63V5H74.162a3.8 3.8 0 0 0-3.79 3.784v1.923a3.8 3.8 0 0 0 3.79 3.788H87.63l-.004.006zm-29.12 4.014h3.998V1.154h-3.998v17.36zm36.983 0h-3.993V8.35h.01c.236-4.087 3.638-7.366 7.767-7.366h3.343V5h-3.343c-1.71 0-3.172 1.162-3.628 2.745h6.97v4.006H95.49v6.764zm43.373-4.013v4.014h-13.47c-4.134 0-7.538-3.274-7.777-7.36h-.014V8.35h.014c.24-4.087 3.643-7.366 7.778-7.366h13.47V5h-13.47a3.8 3.8 0 0 0-3.79 3.784v1.923a3.8 3.8 0 0 0 3.79 3.788h9.465v-2.737h-4.866V7.74h8.87v6.76zM153.85.985V5h-3.34c-2.073 0-3.777 1.7-3.784 3.784v1.923c.007 2.09 1.71 3.788 3.783 3.788h3.34v4.02h-3.34c-4.125 0-7.534-3.275-7.765-7.36h-.015V8.35h.015c.23-4.087 3.64-7.366 7.764-7.366h3.34zm-51.233 0h3.332c4.206 0 7.657 3.398 7.778 7.588v.007l.007.045v.052l.002.044v3.057l-.002.044v.048l-.004.02v6.626h-3.993V11.75h-7.12V7.746h6.973C109.126 6.162 107.663 5 105.95 5h-3.333V.983zm51.232 17.53v-4.02h3.34a3.79 3.79 0 0 0 3.752-3.34h-.002c.006-.067.014-.123.023-.176v-.035l.005-.017c.002-.076.004-.156.004-.223V8.8a3.73 3.73 0 0 0-.01-.242V8.52a2.41 2.41 0 0 1-.022-.17h.002C160.724 6.47 159.116 5 157.19 5h-3.34V.983h3.34c4.2 0 7.656 3.398 7.77 7.588v.007l.006.045v.117l.002.033.002.025h.002l-.002 1.903h.002l-.002.004-.002.022-.002.033v.098l-.007.062v.004c-.114 4.195-3.57 7.588-7.77 7.588h-3.34z"/>
    </g>
  </g>
</svg>
