<svg xmlns="http://www.w3.org/2000/svg" width="80" height="107" viewBox="0 0 80 107" aria-labelledby="title">
  <title>8th Light</title>
  <g fill="none" fill-rule="evenodd">
    <path fill="#339ECD" d="M42.949932,42.3334694 L79.9785034,1.41292517 L78.6137415,0.0448979592 L37.7915646,37.0613605 C39.8847619,38.4028571 41.652517,40.2087075 42.949932,42.3334694"/>
    <path fill="#222321" d="M29.1081633,58.2269388 C25.1066667,58.2269388 21.8627211,54.9772789 21.8627211,50.9678912 C21.8627211,46.9657143 25.1066667,43.7160544 29.1081633,43.7160544 C33.1103401,43.7160544 36.3521088,46.9657143 36.3521088,50.9678912 C36.3521088,54.9772789 33.1103401,58.2269388 29.1081633,58.2269388 L29.1081633,58.2269388 Z M32.8647619,38.9730612 L29.9919728,0.125578231 L28.0587755,0.125578231 L25.1795918,39.0307483 C24.5477551,39.2387755 23.9361905,39.497415 23.3526531,39.7970068 L3.15129252,23.6190476 L1.78408163,24.9881633 L17.9458503,45.2095238 C17.6280272,45.8292517 17.3552381,46.4746939 17.1414966,47.1491156 L0.114557823,49.9903401 L0.114557823,51.9253061 L17.1327891,54.7634014 C17.3538776,55.4657143 17.6368707,56.1385034 17.9719728,56.7813605 L8.06258503,70.6697959 L9.42816327,72.037551 L23.3013605,62.1179592 C23.9157823,62.4401361 24.5614966,62.7129252 25.2330612,62.9311565 L28.0587755,79.9087075 L29.9919728,79.9087075 L32.8062585,62.9888435 C33.5227211,62.7680272 34.2078912,62.4820408 34.8643537,62.1454422 L55.0657143,78.3244898 L56.4306122,76.9567347 L40.2711565,56.7334694 C40.5868027,56.1138776 40.8582313,55.4682993 41.0719728,54.7985034 L79.812517,51.9253061 L79.812517,49.9903401 L41.0619048,47.117415 C39.8182313,43.2436735 36.7492517,40.1914286 32.8647619,38.9730612 L32.8647619,38.9730612 Z"/>
    <path fill="#339ECD" d="M7.52734694 95.2419048C7.52734694 95.5736054 7.61714286 95.8442177 7.79673469 96.0537415 7.97632653 96.2634014 8.21823129 96.434966 8.52217687 96.5684354L9.40653061 96.9692517 9.68285714 96.6790476C9.88557823 96.4579592 10.037551 96.229932 10.1389116 95.994966 10.2401361 95.7601361 10.2908844 95.4906122 10.2908844 95.1866667 10.2908844 94.9931973 10.255102 94.8263946 10.1838095 94.6857143 10.112381 94.5453061 10.0121088 94.4302041 9.88326531 94.3402721 9.75428571 94.2504762 9.60231293 94.184898 9.42734694 94.1434014 9.25210884 94.1019048 9.06108844 94.0812245 8.85387755 94.0812245 8.66040816 94.0812245 8.4829932 94.1054422 8.32190476 94.1537415 8.16054422 94.2021769 8.02136054 94.2746939 7.90380952 94.3714286 7.78639456 94.4681633 7.69414966 94.5889796 7.62748299 94.7341497 7.56068027 94.8791837 7.52734694 95.0484354 7.52734694 95.2419048L7.52734694 95.2419048zM8.19061224 98.3371429L7.96952381 98.5582313C7.74843537 98.7793197 7.56408163 99.0212245 7.41673469 99.2836735 7.2692517 99.5462585 7.19564626 99.8571429 7.19564626 100.216463 7.19564626 100.423673 7.23251701 100.606803 7.3062585 100.765714 7.37986395 100.924626 7.48244898 101.057143 7.61360544 101.162993 7.74489796 101.26898 7.9014966 101.349524 8.08353741 101.404762 8.26530612 101.46 8.46693878 101.487755 8.68802721 101.487755 8.90911565 101.487755 9.11170068 101.462449 9.29605442 101.411701 9.48013605 101.361088 9.63795918 101.283946 9.7692517 101.180272 9.90054422 101.076599 10.0017687 100.945306 10.0733333 100.786395 10.1446259 100.627483 10.1804082 100.437551 10.1804082 100.216463 10.1804082 99.8571429 10.0915646 99.5612245 9.91442177 99.3285714 9.7370068 99.0960544 9.49863946 98.9130612 9.19931973 98.7793197L8.19061224 98.3371429 8.19061224 98.3371429zM8.68802721 103.14585C8.20435374 103.14585 7.75061224 103.089388 7.32693878 102.976599 6.90312925 102.86381 6.53469388 102.692245 6.2214966 102.461905 5.90816327 102.231565 5.66068027 101.939184 5.47877551 101.58449 5.29673469 101.229796 5.20585034 100.810612 5.20585034 100.326939 5.20585034 100.050612 5.24734694 99.7915646 5.33020408 99.5496599 5.41319728 99.3078912 5.52136054 99.0844898 5.65496599 98.8795918 5.78843537 98.6746939 5.94163265 98.4892517 6.11442177 98.3234014 6.28707483 98.157551 6.46326531 98.0148299 6.6429932 97.894966L6.90544218 97.7292517C6.71197279 97.6095238 6.52653061 97.4712925 6.3492517 97.3146939 6.17197279 97.1580952 6.01428571 96.9785034 5.87605442 96.7757823 5.73782313 96.5731973 5.62843537 96.3439456 5.54789116 96.0882993 5.46721088 95.8326531 5.42693878 95.5506122 5.42693878 95.2419048 5.42693878 94.7997279 5.52244898 94.4036735 5.7137415 94.0536054 5.9047619 93.7036735 6.15931973 93.407619 6.47714286 93.1658503 6.79496599 92.9239456 7.15986395 92.7398639 7.5722449 92.6130612 7.98435374 92.4863946 8.41170068 92.4231293 8.85387755 92.4231293 9.32367347 92.4231293 9.76693878 92.4760544 10.1838095 92.5820408 10.6006803 92.6880272 10.9644898 92.8491156 11.2755102 93.0655782 11.5863946 93.2821769 11.8315646 93.5561905 12.0112925 93.8877551 12.1908844 94.2194558 12.2806803 94.6110204 12.2806803 95.0623129 12.2806803 95.3295238 12.2484354 95.572517 12.1839456 95.7911565 12.1194558 96.010068 12.0295238 96.2115646 11.9145578 96.3957823 11.7993197 96.58 11.6646259 96.7492517 11.5103401 96.9035374 11.3559184 97.0579592 11.1891156 97.2040816 11.0093878 97.3423129L10.7054422 97.5771429C10.9356463 97.7014966 11.147619 97.8443537 11.3410884 98.0055782 11.5345578 98.1668027 11.7004082 98.3533333 11.8385034 98.5651701 11.9767347 98.7771429 12.084898 99.0189116 12.1632653 99.2906122 12.2414966 99.562449 12.2806803 99.8710204 12.2806803 100.216463 12.2806803 100.69551 12.1839456 101.118095 11.9904762 101.484218 11.7970068 101.850476 11.5367347 102.156871 11.2097959 102.403129 10.8827211 102.64966 10.5016327 102.834966 10.0663946 102.95932 9.63115646 103.083673 9.17170068 103.14585 8.68802721 103.14585L8.68802721 103.14585zM12.955102 96.0710204L14.0605442 96.0710204 14.0605442 94.5234014 15.442449 94.1918367 16.1609524 94.1918367 16.1609524 96.0710204 18.2059864 96.0710204 18.2059864 97.7292517 16.1609524 97.7292517 16.1609524 100.548027C16.1609524 100.852109 16.2322449 101.084762 16.375102 101.24585 16.5178231 101.407211 16.7458503 101.487755 17.0591837 101.487755 17.2526531 101.487755 17.4402721 101.461224 17.6221769 101.408299 17.8039456 101.355374 17.9619048 101.28966 18.0955102 101.211293L18.2059864 101.211293 18.2059864 102.814286C18.0955102 102.869524 17.9619048 102.917823 17.8053061 102.95932 17.6485714 103.000816 17.4840816 103.035374 17.3112925 103.062993 17.1386395 103.090612 16.9658503 103.111293 16.7931973 103.12517 16.6204082 103.138912 16.465034 103.14585 16.3268027 103.14585 15.9813605 103.14585 15.6691156 103.104354 15.3906122 103.021497 15.1118367 102.938639 14.8734694 102.811973 14.6755102 102.641497 14.477415 102.471156 14.3254422 102.258095 14.2194558 102.002449 14.1134694 101.746803 14.0605442 101.446259 14.0605442 101.100816L14.0605442 97.7292517 12.955102 97.7292517 12.955102 96.0710204M24.205034 99.4979592C24.205034 99.2768707 24.1934694 99.0707483 24.1704762 98.8795918 24.1473469 98.6884354 24.1036735 98.5261224 24.0391837 98.392517 23.9470748 98.1897959 23.810068 98.0378231 23.6281633 97.9364626 23.4461224 97.8352381 23.1963265 97.7844898 22.8785034 97.7844898 22.6297959 97.7844898 22.3971429 97.8327891 22.1806803 97.9295238 21.9642177 98.0262585 21.7730612 98.1436735 21.6072109 98.2819048L21.6072109 103.035374 19.5069388 103.035374 19.5069388 92.2020408 20.8887075 91.8703401 21.6072109 91.8703401 21.6072109 96.6238095 21.7178231 96.6238095C22.0217687 96.4027211 22.3234014 96.2368707 22.6228571 96.1262585 22.9223129 96.0157823 23.2654422 95.9605442 23.652381 95.9605442 24.1082993 95.9605442 24.5321088 96.0480272 24.9235374 96.2229932 25.314966 96.3980952 25.6282993 96.6790476 25.8632653 97.0659864 26.0013605 97.2963265 26.1095238 97.5598639 26.1878912 97.8570068 26.2662585 98.1541497 26.3054422 98.4985034 26.3054422 98.889932L26.3054422 103.035374 24.205034 103.035374 24.205034 99.4979592"/>
    <polyline fill="#222321" points="32.195 103.035 32.195 92.865 34.461 92.865 34.461 101.267 38.386 101.267 38.386 103.035 32.195 103.035"/>
    <path fill="#222321" d="M39.2136054 96.1816327L40.5953741 95.849932 41.3138776 95.849932 41.3138776 103.035374 39.2136054 103.035374 39.2136054 96.1816327 39.2136054 96.1816327zM40.3190476 94.3023129C39.9597279 94.3023129 39.6855782 94.212517 39.4968707 94.0329252 39.3078912 93.8531973 39.2136054 93.6069388 39.2136054 93.2936054 39.2136054 92.9942857 39.3078912 92.7559184 39.4968707 92.5785034 39.6855782 92.4012245 39.9597279 92.312517 40.3190476 92.312517 40.6782313 92.312517 40.9522449 92.4012245 41.1412245 92.5785034 41.329932 92.7559184 41.4244898 92.9942857 41.4244898 93.2936054 41.4244898 93.6069388 41.329932 93.8531973 41.1412245 94.0329252 40.9522449 94.212517 40.6782313 94.3023129 40.3190476 94.3023129L40.3190476 94.3023129zM45.6204082 99.6084354C46.0118367 99.6084354 46.312381 99.5129252 46.5220408 99.3217687 46.7315646 99.1306122 46.8363265 98.8393197 46.8363265 98.4477551 46.8363265 98.0563265 46.7315646 97.764898 46.5220408 97.5737415 46.312381 97.3827211 46.0118367 97.2870748 45.6204082 97.2870748 45.2288435 97.2870748 44.9282993 97.3827211 44.7187755 97.5737415 44.5091156 97.764898 44.4043537 98.0563265 44.4043537 98.4477551 44.4043537 98.8393197 44.5091156 99.1306122 44.7187755 99.3217687 44.9282993 99.5129252 45.2288435 99.6084354 45.6204082 99.6084354L45.6204082 99.6084354zM44.9639456 103.297823C44.9317007 103.297823 44.8971429 103.293197 44.8604082 103.284082L44.5702041 103.477551C44.4043537 103.588027 44.2707483 103.72381 44.1695238 103.88517 44.0680272 104.046259 44.017415 104.223673 44.017415 104.417143 44.017415 104.596735 44.0555102 104.752245 44.1314286 104.883537 44.207483 105.014694 44.309932 105.124082 44.4389116 105.211701 44.5677551 105.299048 44.7152381 105.363673 44.8810884 105.40517 45.0469388 105.446531 45.2195918 105.467347 45.3993197 105.467347 45.6893878 105.467347 45.9530612 105.434966 46.1903401 105.370612 46.427483 105.305986 46.6312925 105.218503 46.8017687 105.108027 46.9721088 104.997415 47.1034014 104.868435 47.1956463 104.721088 47.287619 104.573605 47.3337415 104.417143 47.3337415 104.251293 47.3337415 104.131429 47.3221769 104.027755 47.2991837 103.940408 47.2760544 103.852789 47.2336054 103.778095 47.1714286 103.715918 47.1092517 103.653605 47.0239456 103.604082 46.9157823 103.567347 46.807483 103.53034 46.6704762 103.500544 46.5047619 103.477551L45.067619 103.311701C45.0307483 103.302313 44.9961905 103.297823 44.9639456 103.297823L44.9639456 103.297823zM45.2887075 106.572789C44.8465306 106.572789 44.4285714 106.537007 44.0346939 106.465578 43.6409524 106.39415 43.2955102 106.282585 42.9983673 106.130612 42.7012245 105.978503 42.4651701 105.783946 42.2902041 105.546803 42.115102 105.309388 42.027619 105.02517 42.027619 104.693469 42.027619 104.453878 42.0794558 104.234014 42.1831293 104.033605 42.2868027 103.833333 42.424898 103.658231 42.5976871 103.508571 42.7703401 103.358912 42.9695238 103.234422 43.1952381 103.13551 43.4209524 103.036327 43.6582313 102.966259 43.9069388 102.924762L43.9069388 102.897143C43.7687075 102.786531 43.6604082 102.651837 43.5821769 102.492925 43.5038095 102.334014 43.4647619 102.146395 43.4647619 101.929932 43.4647619 101.791701 43.492381 101.660408 43.547619 101.536054 43.6028571 101.411701 43.6742857 101.301088 43.7617687 101.20449 43.8492517 101.107755 43.944898 101.025986 44.0485714 100.959184 44.1522449 100.892517 44.252381 100.847483 44.3491156 100.82449L44.3491156 100.727755C43.7455782 100.575646 43.272381 100.30517 42.9292517 99.9159184 42.5861224 99.5266667 42.4145578 99.037415 42.4145578 98.4477551 42.4145578 98.0608163 42.4915646 97.7130612 42.6459864 97.4044898 42.8002721 97.0959184 43.0179592 96.8344218 43.2989116 96.6202721 43.5798639 96.4061224 43.9172789 96.2427211 44.3111565 96.1297959 44.704898 96.0170068 45.1412245 95.9605442 45.6204082 95.9605442 46.002585 95.9605442 46.3572789 95.997415 46.6843537 96.0710204 47.0112925 96.1447619 47.3061224 96.2506122 47.5687075 96.3888435L47.6654422 96.3473469 47.8312925 96.3473469 49.2130612 96.0710204 49.8763265 96.0710204 49.8763265 97.3423129 48.5635374 97.3423129C48.6465306 97.5035374 48.7108844 97.6763265 48.7570068 97.8604082 48.8029932 98.0447619 48.8261224 98.2404082 48.8261224 98.4477551 48.8261224 98.8208163 48.7477551 99.1571429 48.5912925 99.4564626 48.4345578 99.7559184 48.2146939 100.011565 47.9314286 100.223401 47.6481633 100.435238 47.3096599 100.597687 46.9157823 100.710476 46.5220408 100.823401 46.0902041 100.879728 45.6204082 100.879728L45.302585 100.879728C45.2655782 100.934966 45.2356463 100.999592 45.2126531 101.073197 45.1896599 101.146939 45.1782313 101.229796 45.1782313 101.321905 45.1782313 101.487755 45.2356463 101.60517 45.3508844 101.674286 45.4659864 101.743265 45.6480272 101.791701 45.8967347 101.81932L47.4443537 101.98517C47.757551 102.017415 48.0372789 102.081905 48.2838095 102.178639 48.530068 102.275374 48.7386395 102.403129 48.9089796 102.562041 49.0793197 102.720952 49.2095238 102.914422 49.2994558 103.142449 49.3892517 103.37034 49.4341497 103.634014 49.4341497 103.933469 49.4341497 104.315782 49.3246259 104.668163 49.1059864 104.990612 48.8870748 105.312925 48.5888435 105.591701 48.2112925 105.826531 47.8334694 106.061497 47.3936054 106.24449 46.8915646 106.375782 46.3895238 106.507075 45.8552381 106.572789 45.2887075 106.572789L45.2887075 106.572789zM55.4010884 99.4979592C55.4010884 99.2768707 55.3895238 99.0707483 55.3665306 98.8795918 55.3434014 98.6884354 55.2997279 98.5261224 55.2352381 98.392517 55.1431293 98.1897959 55.0061224 98.0378231 54.8242177 97.9364626 54.6421769 97.8352381 54.392381 97.7844898 54.0745578 97.7844898 53.8258503 97.7844898 53.5931973 97.8327891 53.3767347 97.9295238 53.1602721 98.0262585 52.9691156 98.1436735 52.8032653 98.2819048L52.8032653 103.035374 50.7029932 103.035374 50.7029932 92.2020408 52.0847619 91.8703401 52.8032653 91.8703401 52.8032653 96.6238095 52.9138776 96.6238095C53.2178231 96.4027211 53.5194558 96.2368707 53.8189116 96.1262585 54.1183673 96.0157823 54.4614966 95.9605442 54.8484354 95.9605442 55.3043537 95.9605442 55.7281633 96.0480272 56.1195918 96.2229932 56.5110204 96.3980952 56.8243537 96.6790476 57.0593197 97.0659864 57.197415 97.2963265 57.3055782 97.5598639 57.3839456 97.8570068 57.4623129 98.1541497 57.5014966 98.4985034 57.5014966 98.889932L57.5014966 103.035374 55.4010884 103.035374 55.4010884 99.4979592M58.372381 96.0710204L59.4778231 96.0710204 59.4778231 94.5234014 60.8595918 94.1918367 61.5782313 94.1918367 61.5782313 96.0710204 63.6232653 96.0710204 63.6232653 97.7292517 61.5782313 97.7292517 61.5782313 100.548027C61.5782313 100.852109 61.6495238 101.084762 61.792381 101.24585 61.935102 101.407211 62.1629932 101.487755 62.4763265 101.487755 62.6697959 101.487755 62.857415 101.461224 63.0394558 101.408299 63.2213605 101.355374 63.3790476 101.28966 63.5126531 101.211293L63.6232653 101.211293 63.6232653 102.814286C63.5126531 102.869524 63.3790476 102.917823 63.222585 102.95932 63.0658503 103.000816 62.9012245 103.035374 62.7285714 103.062993 62.5557823 103.090612 62.3831293 103.111293 62.2103401 103.12517 62.0376871 103.138912 61.8821769 103.14585 61.7439456 103.14585 61.3985034 103.14585 61.0863946 103.104354 60.8078912 103.021497 60.5291156 102.938639 60.2907483 102.811973 60.0927891 102.641497 59.8946939 102.471156 59.742585 102.258095 59.6367347 102.002449 59.5307483 101.746803 59.4778231 101.446259 59.4778231 101.100816L59.4778231 97.7292517 58.372381 97.7292517 58.372381 96.0710204"/>
  </g>
</svg>
