<svg width="265" height="49" viewBox="0 0 265 49" xmlns="http://www.w3.org/2000/svg" aria-labelledby="title">
  <title>WindyCityThings</title>
  <g fill="none" fill-rule="evenodd">
    <g fill="#42A5D0">
      <path
        d="M211.48 19.723c-1.703 0-2.79.957-3.53 2.012v-6.232h-4.346v17.762h4.346V25.44c0-1.227.667-1.89 1.605-1.89.913 0 1.53.663 1.53 1.89v7.825h4.346v-9.15c0-2.7-1.455-4.392-3.95-4.392M188.493 20.067h4.272v13.198h4.444V20.067h4.27v-3.975h-12.987zM218.172 33.266h4.32V19.993h-4.32zM233.21 19.723c-1.705 0-2.79.98-3.532 2.036v-1.767h-4.345v13.272h4.345V25.44c0-1.227.667-1.89 1.605-1.89.914 0 1.53.663 1.53 1.89v7.825h4.347v-9.15c0-2.7-1.457-4.392-3.95-4.392M248.024 26.003c0 1.62-.864 2.7-2.173 2.7-1.283 0-2.147-1.056-2.147-2.7v-.073c0-1.62.84-2.723 2.148-2.723 1.31 0 2.174 1.08 2.174 2.723v.073zm-.05-4.44c-.864-1.03-1.9-1.84-3.654-1.84-2.617 0-4.913 2.036-4.913 6.158v.197c0 4.048 2.272 6.084 5.012 6.084 1.702 0 2.79-.857 3.604-1.912v.662c0 1.89-1.013 2.846-3.012 2.846a8.427 8.427 0 0 1-4.025-1.03l-1.21 3.09c1.704.786 3.506 1.203 5.68 1.203 2.443 0 4.147-.565 5.283-1.67 1.06-1.054 1.555-2.6 1.555-4.783V19.993h-4.32v1.57zM260.616 24.998c-1.308-.54-1.975-.81-1.975-1.3v-.05c0-.368.323-.687 1.014-.687.962 0 2.222.467 3.283 1.13l1.58-2.92c-1.48-.956-3.234-1.422-4.888-1.422-2.915 0-4.964 1.594-4.964 4.268v.05c0 2.404 1.73 3.336 4.074 4.195 1.333.516 1.95.76 1.95 1.276v.05c0 .417-.345.735-1.086.735-1.185 0-2.567-.538-3.876-1.446l-1.63 2.87c1.73 1.276 3.704 1.79 5.53 1.79 3.013 0 5.038-1.57 5.038-4.34v-.05c0-2.257-1.63-3.24-4.05-4.146M222.65 16.805c0 1.19-.947 2.153-2.317 2.153s-2.318-.964-2.318-2.153c0-1.188.948-2.152 2.318-2.152s2.318.964 2.318 2.152"/>
    </g>
    <g fill="#8CC240">
      <path
        d="M81.924 26.028l-2.716-9.985H75.38l-2.69 9.985-2.42-9.936h-4.69l4.814 17.27h4.074l2.79-9.493 2.79 9.493h4.074l4.814-17.27h-4.592zM90.864 33.266h4.32V19.993h-4.32zM105.9 19.723c-1.703 0-2.79.98-3.53 2.036v-1.767h-4.346v13.272h4.346V25.44c0-1.227.666-1.89 1.605-1.89.913 0 1.53.663 1.53 1.89v7.825h4.346v-9.15c0-2.7-1.456-4.392-3.95-4.392zM120.715 26.79c0 1.84-.914 3.065-2.148 3.065-1.284 0-2.173-1.226-2.173-3.066v-.32c0-1.84.89-3.067 2.173-3.067 1.234 0 2.148 1.227 2.148 3.067v.32zm-.05-5.202c-.79-.982-1.802-1.865-3.58-1.865-2.666 0-4.987 2.208-4.987 6.722v.442c0 4.44 2.32 6.648 5.012 6.648 1.753 0 2.74-.908 3.556-1.962v1.692h4.32V15.503h-4.32v6.085zM133.555 27.82l-2.198-7.827h-4.493l4.518 13.076c-.222.392-.543.514-.963.514-.42 0-1.063-.196-1.68-.54l-1.11 3.067a7.218 7.218 0 0 0 3.53.934c2.47 0 3.654-1.178 4.64-4.147l4.223-12.904h-4.394l-2.075 7.826zM149.727 29.463c-2 0-3.53-1.693-3.53-4.76v-.098c0-2.92 1.506-4.71 3.53-4.71 1.358 0 2.297.736 3.037 1.62l2.864-3.02c-1.407-1.642-3.26-2.697-5.975-2.697-4.543 0-8.024 3.46-8.024 8.758v.294c0 5.35 3.43 8.71 7.85 8.71 2.89 0 4.815-1.227 6.223-2.944l-2.815-2.846c-.79.908-1.68 1.693-3.16 1.693M157.85 33.266h4.322V19.993h-4.32zM170.024 16.68h-4.32v3.313h-1.334v3.46h1.333v6.206c0 2.82 1.556 3.85 3.975 3.85 1.16 0 2.173-.27 2.938-.686v-3.386c-.493.22-.987.344-1.48.344-.742 0-1.112-.32-1.112-1.105v-5.225h2.617v-3.46h-2.616v-3.31zM180.715 27.82l-2.197-7.827h-4.494l4.518 13.076c-.222.392-.543.514-.962.514-.42 0-1.062-.196-1.68-.54l-1.11 3.067a7.22 7.22 0 0 0 3.53.934c2.47 0 3.654-1.178 4.642-4.147l4.222-12.904h-4.395l-2.075 7.826zM95.342 16.805c0 1.19-.948 2.153-2.318 2.153s-2.318-.964-2.318-2.153c0-1.188.948-2.152 2.318-2.152s2.318.964 2.318 2.152M162.33 16.805c0 1.19-.95 2.153-2.32 2.153-1.368 0-2.317-.964-2.317-2.153 0-1.188.95-2.152 2.318-2.152 1.37 0 2.32.964 2.32 2.152"/>
    </g>
    <path
      d="M55.435 17.102a27.178 27.178 0 0 0-.403-.997l-.012-.028a26.62 26.62 0 0 0-4.594-7.27 25.025 25.025 0 0 0-7.41-5.73c-.293-.148-.59-.293-.89-.43C38.647 1.048 34.78.238 30.634.238c-7.4 0-13.745 2.04-18.348 5.9-.557.467-1.08.958-1.572 1.47-.023.022-.047.043-.07.068l.003.002c-3.124 3.283-4.88 7.41-4.88 11.602 0 1.162.148 2.196.286 2.91h-1.24a1.22 1.22 0 0 0-.926-.425c-.673 0-1.22.543-1.22 1.212 0 .667.547 1.21 1.22 1.21.37 0 .703-.166.926-.425h3.296l-.302-1.01c-.004-.016-.46-1.557-.46-3.473 0-3.82 1.628-7.59 4.52-10.596.27-.222.76-.153 1.02.07a.85.85 0 0 1 .262.585c.005.102-.005.292-.128.42-1.926 1.996-3.22 4.327-3.78 6.79a1.21 1.21 0 0 0 .605 2.263c.673 0 1.22-.542 1.22-1.21 0-.288-.102-.55-.27-.76.188-.806.466-1.598.83-2.366.113.132.242.25.39.35a2.607 2.607 0 0 0 1.708.436c.673-.072 1.273-.43 1.687-1.006a11.665 11.665 0 0 1 1.976-2.112c1.376-1.154 3.753-2.648 7.423-3.456.207.16.467.26.752.26.673 0 1.218-.543 1.218-1.212 0-.67-.545-1.21-1.218-1.21-.458 0-.857.25-1.065.62-4 .876-6.613 2.523-8.13 3.796a13.223 13.223 0 0 0-2.243 2.4c-.473.657-1.148.23-1.223.18a.478.478 0 0 1-.19-.322c-.055-.278.032-.617.23-.91.368-.5.775-.983 1.222-1.446.394-.408.595-.97.566-1.578-.03-.656-.332-1.29-.805-1.7a2.405 2.405 0 0 0-.497-.326c2.45-2.022 6.46-4.323 12.533-5.132v.004c.385-.06.714-.006.927.15.135.098.215.23.24.395.024.162.04.467-.123.68-.123.162-.35.265-.677.307-2.69.344-5.167 1.024-7.384 2.025A1.22 1.22 0 0 0 17.23 6.78c0 .668.547 1.21 1.22 1.21.564 0 1.038-.382 1.176-.9 2.066-.93 4.382-1.562 6.903-1.884.95-.12 1.467-.566 1.735-.917.38-.498.53-1.16.426-1.86a2.165 2.165 0 0 0-.162-.56c.68-.037 1.38-.06 2.105-.06 4.77 0 8.626 1.108 11.695 2.675l-.002.005c.55.265.75.882.62 1.17a.856.856 0 0 1-.48.447c-.183.06-.37.038-.575-.07a21.807 21.807 0 0 0-1.678-.796c-.002 0-.004 0-.006-.002a23.272 23.272 0 0 0-6.04-1.626 1.22 1.22 0 0 0-1.01-.537c-.674 0-1.22.542-1.22 1.21 0 .67.546 1.212 1.22 1.212.32 0 .61-.124.827-.325 1.204.16 2.37.412 3.495.75-.116.152-.217.32-.297.505-.535 1.25.05 2.667 1.334 3.228a17.126 17.126 0 0 1 5.984 4.354c.825.928 1.56 1.954 2.198 3.054-.05.134-.08.278-.08.43 0 .668.546 1.21 1.22 1.21.672 0 1.217-.542 1.217-1.21 0-.585-.416-1.072-.97-1.186a20.284 20.284 0 0 0-2.4-3.34 18.702 18.702 0 0 0-6.532-4.752c-.536-.234-.682-.78-.514-1.172.224-.522.75-.422 1-.34.515.22 1.02.46 1.51.72.36.19.743.287 1.122.287a2.2 2.2 0 0 0 .706-.115 2.416 2.416 0 0 0 1.412-1.285c.078-.17.13-.35.156-.536a23.845 23.845 0 0 1 4.698 4.074 25.362 25.362 0 0 1 4.357 6.942c.15.523-.23.774-.416.86a.956.956 0 0 1-.72.048.54.54 0 0 1-.32-.31 23.957 23.957 0 0 0-4.086-6.5c-.14-.157-.283-.313-.428-.467a1.215 1.215 0 0 0-1.213-1.323c-.672 0-1.218.542-1.218 1.21 0 .67.546 1.212 1.22 1.212.025 0 .05-.003.077-.004.128.136.255.274.38.413a22.373 22.373 0 0 1 3.813 6.068c.23.543.66.958 1.213 1.168.272.103.563.154.856.154a2.604 2.604 0 0 0 1.59-.545c.776 2.364 1.194 4.808 1.194 7.187 0 6.705-3.812 7.788-3.968 7.83l-.6.147v.615c0 4.394-2.715 5.877-2.826 5.935l-.43.22v2.912a1.204 1.204 0 0 0-.428.92c0 .67.546 1.21 1.22 1.21.672 0 1.218-.54 1.218-1.21 0-.37-.166-.698-.428-.92v-2a6.923 6.923 0 0 0 1.46-1.4c1.314-1.676 1.71-3.622 1.78-5.116 1.362-.6 4.584-2.7 4.584-9.144 0-2.896-.582-5.96-1.683-8.86"
      fill="#42A5D0"/>
    <path
      d="M42.868 43.622v-2.8h-.79c-4.577 0-5.715-3.957-5.76-4.122l-.156-.586h-9.476c-1.738 0-3.15-1.404-3.15-3.13v-.786h-.792c-7.646 0-11.13-3.355-11.163-3.387l-.23-.232H4.81a1.218 1.218 0 0 0-.926-.425c-.673 0-1.22.542-1.22 1.21 0 .67.547 1.212 1.22 1.212.37 0 .703-.165.926-.425h5.9c.952.812 4.532 3.433 11.306 3.61a4.732 4.732 0 0 0 4.668 3.926h8.307c.208.512.593 1.29 1.234 2.067.905 1.096 2.496 2.384 5.06 2.608v1.262a1.204 1.204 0 0 0-.43.92c0 .67.547 1.21 1.22 1.21.673 0 1.22-.54 1.22-1.21 0-.37-.167-.698-.43-.92"
      fill="#42A5D0"/>
    <path
      d="M46.08 46.033v-9.816l5.458-6.354v-6.85h-5.006v3.21h-1.63v-4.816h-3.214v-2.543L39.66 16.85v-2.043a.73.73 0 0 0 .264-.562.737.737 0 0 0-.74-.734c-.407 0-.738.33-.738.735a.73.73 0 0 0 .265.562v2.042l-2.028 2.014V30.94h-1.63v-8.345h-1.056v-4.4H32.94v-5.937h-.843v-2a.73.73 0 0 0 .264-.563.737.737 0 0 0-.738-.734c-.408 0-.74.33-.74.735a.73.73 0 0 0 .265.563v2h-1.42v-2a.73.73 0 0 0 .265-.563.737.737 0 0 0-.74-.734c-.407 0-.738.33-.738.735a.73.73 0 0 0 .265.563v2h-.845v5.936H26.88v4.4h-1.056v4.568h-1.63V17.006h-2.03v-2a.73.73 0 0 0 .265-.563.737.737 0 0 0-.74-.734c-.408 0-.74.328-.74.733a.73.73 0 0 0 .265.563v2h-2.028v7.544h-1.63v-5.66H12.55v6.495H2.385a1.22 1.22 0 0 0-.926-.425c-.674 0-1.22.542-1.22 1.21 0 .67.546 1.212 1.22 1.212.37 0 .7-.165.925-.425h11.747v-6.494h1.842v5.66h4.795v-7.545h1.84v10.156h4.796v-4.568h1.055v-4.4h1.056V13.83h1.843v5.936h1.054v4.4h1.055v8.344h4.794V19.515l.92-.915.922.915v3.464h3.213v4.816h4.794v-3.21h1.842v4.698L44.5 35.638v10.395a1.205 1.205 0 0 0-.43.92c0 .67.547 1.212 1.22 1.212.673 0 1.22-.542 1.22-1.21 0-.37-.167-.7-.43-.922"
      fill="#8CC240"/>
  </g>
</svg>
