<svg width="37" height="36" viewBox="0 0 37 36" xmlns="http://www.w3.org/2000/svg" aria-labelledby="title">
  <title>Medium</title>
  <path
    d="M18.5 0C8.283 0 0 8.06 0 18s8.283 18 18.5 18S37 27.94 37 18 28.717 0 18.5 0zm8.094 13.625h-.225s-.676 0-.676.657v7.437s0 .655.675.655h.224v1.75h-5.396v-1.75h.9v-8.137h-.09l-2.757 9.887h-2.426l-2.73-9.887h-.09v8.137h.9v1.75h-4.498v-1.75h.225s.676 0 .676-.656v-7.44s0-.655-.675-.655h-.224v-1.75h5.966l2.093 7.577h.07l2.11-7.577h5.95v1.75z"
    fill="#D0232B"
    fill-rule="evenodd"/>
</svg>
