<svg width="39" height="38" viewBox="0 0 39 38" xmlns="http://www.w3.org/2000/svg" aria-labelledby="title">
  <title>Twitter</title>
  <path
    d="M19.305 0C8.643 0 0 8.506 0 19s8.643 19 19.305 19c10.662 0 19.305-8.506 19.305-19S29.967 0 19.305 0zm7.853 15.564c.008.162.01.325.01.483 0 4.948-3.823 10.65-10.817 10.65-2.147 0-4.146-.618-5.827-1.682.296.035.6.05.907.05 1.782 0 3.42-.597 4.722-1.602-1.663-.032-3.067-1.112-3.55-2.597a3.878 3.878 0 0 0 1.715-.065c-1.74-.344-3.052-1.856-3.052-3.67v-.044c.513.28 1.1.45 1.724.47a3.726 3.726 0 0 1-1.693-3.118c0-.685.187-1.33.515-1.882a10.87 10.87 0 0 0 7.837 3.913c-.067-.276-.1-.56-.1-.856 0-2.065 1.702-3.743 3.803-3.743 1.092 0 2.08.456 2.775 1.185a7.71 7.71 0 0 0 2.413-.91 3.77 3.77 0 0 1-1.67 2.073 7.734 7.734 0 0 0 2.184-.59 7.643 7.643 0 0 1-1.896 1.936z"
    fill="#D0232B"
    fill-rule="evenodd"/>
</svg>
